<svg xmlns="http://www.w3.org/2000/svg" xmlns:xlink="http://www.w3.org/1999/xlink" xmlns:inkscape="http://www.inkscape.org/namespaces/inkscape" version="1.1" width="250" height="50" viewBox="0 0 250 50">
<defs>
<clipPath id="clip_1">
<path transform="matrix(1,0,0,-1,0,50)" d="M0 50H250V0H0Z"/>
</clipPath>
</defs>
<g inkscape:groupmode="layer" inkscape:label="Layer 1">
<g clip-path="url(#clip_1)">
<path transform="matrix(1,0,0,-1,8.9848,16.0416)" d="M0 0H-2.438C-4.03 0-5.321 1.291-5.321 2.883-5.321 4.475-4.03 5.766-2.438 5.766H14.396C15.988 5.766 17.279 4.475 17.279 2.883 17.279 1.291 15.988 0 14.396 0H11.842C10.249 0 8.959-1.291 8.959-2.883V-21.536C8.959-23.128 7.668-24.419 6.075-24.419H5.766C4.174-24.419 2.883-23.128 2.883-21.536V-2.883C2.883-1.291 1.592 0 0 0" fill="#47227b"/>
<path transform="matrix(1,0,0,-1,31.4935,34.9257)" d="M0 0C.916 .006 1.793 .238 2.595 .697 3.369 1.161 4.027 1.819 4.452 2.593 4.917 3.367 5.149 4.295 5.149 5.186 5.149 5.998 4.994 6.733 4.685 7.43 4.259 8.32 3.601 9.055 2.788 9.597 1.937 10.139 .97 10.448-.037 10.448-3.24 10.448-5.737 7.572-5.184 4.318-4.761 1.828-2.525-.017 0 0M9.578-5.534H5.807C5.315-5.534 4.917-5.135 4.917-4.644 3.408-5.418 1.666-5.805-.037-5.805-1.546-5.805-2.978-5.534-4.332-4.954-5.648-4.412-6.847-3.599-7.854-2.593-8.86-1.587-9.672-.387-10.214 .929-10.795 2.283-11.066 3.715-11.066 5.224-11.066 6.695-10.795 8.127-10.214 9.52-9.672 10.835-8.86 11.996-7.854 13.003-6.847 14.009-5.648 14.821-4.332 15.363-2.978 15.944-1.546 16.253-.037 16.253 1.705 16.253 3.408 15.828 4.917 15.054 4.917 15.716 5.454 16.253 6.117 16.253H8.475C9.716 16.253 10.722 15.248 10.722 14.007V-4.39C10.722-5.022 10.21-5.534 9.578-5.534" fill="#47227b"/>
<path transform="matrix(1,0,0,-1,44.0321,37.5444)" d="M0 0C0 1.617 1.311 2.928 2.928 2.928H9.055C9.636 2.928 10.061 3.393 10.061 3.934 10.061 4.515 9.597 4.979 9.055 4.979H7.657C3.435 4.979 .028 8.438 .372 12.645 .669 16.281 3.718 19.143 7.43 19.143H12.431C14.136 19.143 15.518 17.761 15.518 16.056 15.518 14.405 14.18 13.067 12.529 13.067H7.508C6.895 13.067 6.364 12.555 6.43 11.946 6.486 11.425 6.925 11.055 7.43 11.055H8.788C13.02 11.055 16.449 7.588 16.115 3.369 15.826-.276 12.774-3.147 9.055-3.147H3.147C1.409-3.147 0-1.738 0 0Z" fill="#47227b"/>
<path transform="matrix(1,0,0,-1,67.7914,35.760004)" d="M0 0V-2.668C0-3.79-.91-4.7-2.033-4.7H-3.811C-4.933-4.7-5.844-3.79-5.844-2.668V24.458C-5.844 25.58-4.933 26.491-3.811 26.491H-2.033C-.91 26.491 0 25.58 0 24.458V14.005C0 12.14 2.302 11.259 3.547 12.649L6.708 16.178C7.094 16.609 7.644 16.855 8.222 16.855H10.205C11.967 16.855 12.894 14.766 11.712 13.459L7.429 8.721C6.813 8.04 6.731 7.03 7.228 6.258L12.264-1.568C13.134-2.921 12.163-4.7 10.555-4.7H8.579C7.887-4.7 7.243-4.349 6.869-3.767L3.743 1.099C3.024 2.218 1.441 2.356 .539 1.379 .192 1.003 0 .511 0 0" fill="#47227b"/>
<path transform="matrix(1,0,0,-1,87.8452,40.4604)" d="M0 0H.309C1.902 0 3.192 1.291 3.192 2.883V12.89C3.192 14.482 4.483 15.773 6.076 15.773H14.086C15.678 15.773 16.969 17.064 16.969 18.656 16.969 20.248 15.678 21.539 14.086 21.539H0C-1.592 21.539-2.883 20.248-2.883 18.656V2.883C-2.883 1.291-1.592 0 0 0" fill="#47227b"/>
<path transform="matrix(1,0,0,-1,84.9621,13.1586)" d="M0 0V0C0-1.592 1.291-2.883 2.883-2.883H16.969C18.561-2.883 19.852-1.592 19.852 0 19.852 1.592 18.561 2.883 16.969 2.883H2.883C1.291 2.883 0 1.592 0 0" fill="#47227b"/>
<path transform="matrix(1,0,0,-1,115.455,34.887)" d="M0 0C2.864 0 5.224 2.322 5.224 5.224 5.224 8.088 2.864 10.449 0 10.449-2.902 10.449-5.224 8.088-5.224 5.224-5.224 2.322-2.902 0 0 0M-4.296-4.953C-5.611-4.412-6.811-3.599-7.817-2.593-8.823-1.587-9.636-.387-10.178 .929-10.758 2.283-11.029 3.715-11.029 5.224-11.029 6.695-10.758 8.127-10.178 9.52-9.636 10.797-8.823 11.997-7.817 13.003-6.811 14.009-5.611 14.821-4.296 15.363-2.941 15.944-1.509 16.253 0 16.253 1.47 16.253 2.902 15.944 4.296 15.363 5.572 14.821 6.772 14.009 7.778 13.003 8.784 11.997 9.597 10.836 10.139 9.52 10.719 8.127 11.029 6.695 11.029 5.224 11.029 3.715 10.719 2.283 10.139 .929 9.597-.387 8.784-1.587 7.778-2.593 6.772-3.599 5.611-4.412 4.296-4.953 2.902-5.534 1.47-5.805 0-5.805-1.509-5.805-2.941-5.534-4.296-4.953" fill="#47227b"/>
<path transform="matrix(1,0,0,-1,129.5003,26.0251)" d="M0 0C.619 1.471 1.548 2.825 2.709 3.986 3.831 5.147 5.186 6.037 6.695 6.695 7.075 6.856 7.46 6.997 7.85 7.117 9.701 7.688 11.571 6.268 11.571 4.331V4.312C11.571 3.056 10.767 1.927 9.568 1.555 6.818 .701 4.799-1.864 4.799-4.915V-11.532C4.799-13.135 3.499-14.435 1.896-14.435 .293-14.435-1.006-13.135-1.006-11.532V-4.915C-1.006-3.212-.658-1.548 0 0" fill="#47227b"/>
<path transform="matrix(1,0,0,-1,147.1071,39.8792)" d="M0 0C-1.316 .542-2.477 1.355-3.522 2.361-4.528 3.367-5.302 4.566-5.882 5.882-6.424 7.237-6.734 8.668-6.734 10.178-6.734 11.648-6.424 13.08-5.882 14.473-5.302 15.75-4.528 16.95-3.522 17.956-2.477 18.962-1.316 19.775 0 20.317 1.354 20.897 2.825 21.207 4.296 21.207 6.076 21.207 7.894 20.742 9.442 19.93 9.855 19.713 10.25 19.47 10.627 19.204 12.199 18.092 12.179 15.748 10.6 14.644L10.417 14.516C9.442 13.834 8.165 13.881 7.178 14.546 5.265 15.833 2.585 15.825 .353 13.733 .17 13.561 .01 13.358-.113 13.138-2.413 9.034 .499 4.953 4.296 4.953 5.397 4.953 6.432 5.286 7.288 5.883 8.237 6.546 9.499 6.54 10.451 5.882L10.66 5.738C12.257 4.634 12.268 2.276 10.682 1.157 8.846-.138 6.624-.851 4.296-.851 2.825-.851 1.354-.58 0 0" fill="#47227b"/>
<path transform="matrix(1,0,0,-1,175.3553,26.8765)" d="M0 0C-.929 1.471-2.593 2.477-4.489 2.477-6.385 2.477-8.011 1.471-8.978 0ZM-14.156-7.872C-14.749-6.771-15.139-5.564-15.302-4.325-15.767-.811-14.585 2.474-12.19 4.915-9.792 7.313-6.442 8.441-3.006 7.991-.58 7.673 1.681 6.512 3.375 4.748 5.36 2.682 6.424 .038 6.424-2.825 6.424-4.364 5.176-5.611 3.638-5.611H-8.978C-8.011-7.121-6.385-8.088-4.489-8.088-3.643-8.088-2.822-7.896-2.087-7.526-1.044-7.003 .219-7.222 1.063-8.026 2.444-9.341 2.16-11.646 .474-12.535 .293-12.63 .109-12.722-.077-12.809-1.471-13.39-2.941-13.699-4.489-13.699-8.467-13.699-12.155-11.591-14.156-7.872" fill="#47227b"/>
<path transform="matrix(1,0,0,-1,205.6037,19.2473)" d="M0 0 7.287-9.898H-10.212C-10.927-9.898-11.609-10.194-12.099-10.715-13.651-12.367-12.479-15.075-10.212-15.075H11.098L14.404-19.565C15.191-20.634 16.443-21.26 17.771-21.248 21.144-21.218 23.063-17.379 21.063-14.662L6.66 4.903C5.063 7.072 1.852 7.16 .139 5.081-1.066 3.619-1.123 1.526 0 0" fill="#47227b"/>
<path transform="matrix(1,0,0,-1,246.2749,37.0391)" d="M0 0C.018 .105 .032 .211 .042 .318 .053 .438 .061 .559 .062 .681 .064 1.513-.188 2.365-.751 3.129L-15.155 22.695C-16.752 24.864-19.963 24.951-21.675 22.873-22.88 21.412-22.937 19.319-21.815 17.793L-15.482 9.191-14.527 7.893-8.084-.858-7.41-1.773C-6.918-2.442-6.245-2.937-5.484-3.211-5.467-3.217-5.449-3.221-5.432-3.227-4.991-3.379-4.522-3.461-4.043-3.457-1.88-3.437-.318-1.851 0 0" fill="#47227b"/>
</g>
</g>
</svg>
